<svg xmlns="http://www.w3.org/2000/svg" xmlns:xlink="http://www.w3.org/1999/xlink" width="376" height="148" xmlns:v="https://vecta.io/nano"><style><![CDATA[.M{stroke:#000}.N{fill:#734b02}.O{fill:#3b2906}.P{stroke-width:1.066}.Q{fill-opacity:.507}.R{stroke-width:.848}]]></style><defs><linearGradient x1="-0.000697819315%" y1="-96.2978064%" x2="99.9993103%" y2="-96.2978064%" id="A"><stop stop-color="#593d09" offset="0%"/><stop stop-color="#7f5200" offset="100%"/></linearGradient><linearGradient x1="-1.4005154e-14%" y1="-96.3645412%" x2="100%" y2="-96.3645412%" id="B"><stop stop-color="#563b09" offset="0%"/><stop stop-color="#291d04" offset="100%"/></linearGradient><path id="C" d="M161.42 114.54c1.451 0 2.805.421 3.954 1.133h.1a7.53 7.53 0 0 1 7.52 7.131c.007.128 0 .259 0 .389 0 1.089-.24 2.121-.655 3.055a7.46 7.46 0 0 1 1.266 4.176v.389c-.201 3.974-3.495 7.131-7.52 7.131a7.59 7.59 0 0 1-1.166-.089c-1.18.77-2.595 1.222-4.11 1.222a7.51 7.51 0 0 1-3.999-1.144 7.27 7.27 0 0 1-.444.011 7.53 7.53 0 0 1-7.531-7.52 7.44 7.44 0 0 1 .666-3.066 7.41 7.41 0 0 1-1.277-4.165 7.53 7.53 0 0 1 7.531-7.52 7.56 7.56 0 0 1 1.477.144 7.47 7.47 0 0 1 4.187-1.277h0z"/><path id="D" d="M163.32 116.941c1.451 0 2.805.421 3.954 1.133h.1a7.53 7.53 0 0 1 7.52 7.131c.007.128 0 .259 0 .389 0 1.089-.24 2.121-.655 3.055a7.46 7.46 0 0 1 1.266 4.176v.389c-.201 3.974-3.495 7.131-7.52 7.131a7.6 7.6 0 0 1-1.166-.089c-1.18.77-2.595 1.222-4.11 1.222a7.51 7.51 0 0 1-3.999-1.144 7.27 7.27 0 0 1-.444.011 7.53 7.53 0 0 1-7.531-7.52 7.44 7.44 0 0 1 .666-3.066 7.41 7.41 0 0 1-1.277-4.165 7.53 7.53 0 0 1 7.531-7.52 7.56 7.56 0 0 1 1.477.144 7.47 7.47 0 0 1 4.188-1.277h0z"/><path id="E" d="M273.041 76.146c1.463 0 2.828.264 3.987.711h.101c4.057 0 7.378 1.98 7.581 4.472.007.08 0 .162 0 .244 0 .683-.242 1.33-.661 1.916.808.75 1.277 1.648 1.277 2.619v.244c-.203 2.493-3.524 4.472-7.581 4.472a12.24 12.24 0 0 1-1.176-.056c-1.19.483-2.616.766-4.143.766-1.479 0-2.864-.262-4.031-.718l-.448.007c-4.188 0-7.592-2.111-7.592-4.716 0-.686.247-1.336.672-1.923-.81-.748-1.288-1.642-1.288-2.612 0-2.605 3.404-4.716 7.592-4.716a12.12 12.12 0 0 1 1.489.091c1.208-.506 2.656-.801 4.222-.801h0z"/><path id="F" d="M274.956 77.652c1.463 0 2.828.264 3.987.711h.101c4.057 0 7.378 1.98 7.581 4.472.007.08 0 .162 0 .244 0 .683-.242 1.33-.661 1.916.808.75 1.277 1.648 1.277 2.619v.244c-.203 2.493-3.524 4.472-7.581 4.472a12.21 12.21 0 0 1-1.176-.056c-1.19.483-2.616.766-4.143.766-1.479 0-2.864-.262-4.031-.718l-.448.007c-4.188 0-7.592-2.111-7.592-4.716 0-.686.247-1.336.672-1.923-.81-.748-1.288-1.642-1.288-2.612 0-2.605 3.404-4.716 7.592-4.716a12.12 12.12 0 0 1 1.489.091c1.208-.506 2.656-.801 4.222-.801h0z"/></defs><g transform="translate(-.003 .158)" fill-rule="evenodd"><path d="M273.222.13c-4.047 0-7.747 1.272-10.625 3.406-2.333-1.111-5.009-1.75-7.844-1.75-9.153 0-16.562 6.581-16.562 14.688a13.21 13.21 0 0 0 .813 4.563c-2.582 2.588-4.156 5.962-4.156 9.688a13.18 13.18 0 0 0 .531 3.656 17.33 17.33 0 0 0-4.125 1.781c-2.472 1.131-4.605 2.754-6.156 4.781-.003.001.003.03 0 .031a39.08 39.08 0 0 0-4.375 1.938c-2.618-6.062-7.616-10.459-13.562-11.5-3.08-2.779-6.907-4.437-11.094-4.437-3.958 0-7.635 1.46-10.625 3.969-2.772-1.99-6.012-3.156-9.5-3.156-9.503 0-17.295 8.533-18.156 19.406-1.688-.604-3.487-.937-5.344-.937-5.605 0-10.621 2.966-13.969 7.625-.924-.046-1.869-.094-2.812-.094a54.9 54.9 0 0 0-8.5.656c-3.154-6.402-9.052-10.719-15.812-10.719-7.671 0-14.238 5.549-16.937 13.406-2.87-7.402-9.204-12.562-16.594-12.562-5.575 0-10.559 2.946-13.906 7.563-2.177-1.074-4.552-1.687-7.062-1.687-7.538 0-14.029 5.359-16.812 13-2.703-1.854-5.83-2.937-9.187-2.937-6.773 0-12.695 4.329-15.844 10.75-1.313-.674-2.788-1.062-4.312-1.062-5.909 0-10.687 5.607-10.687 12.531s4.779 12.531 10.688 12.531c1.793 0 3.515-.492 5-1.406.063.11.154.204.219.313 1.4 4.023 4.534 6.993 8.313 7.656 2.051.935 4.291 1.469 6.625 1.469 3.28 0 6.34-1.037 9-2.812 1.288 5.229 5.405 9.063 10.281 9.063.783 0 1.547-.094 2.281-.281a17.39 17.39 0 0 0 7.594 1.75 17.32 17.32 0 0 0 6.5-1.281c1.887 1.965 4.368 3.156 7.094 3.156 3.396 0 6.415-1.859 8.375-4.75 4.403 7.921 16.109 13.738 30.156 14.375 1.845 3.768 5.308 6.313 9.281 6.313 3.562 0 6.712-2.05 8.656-5.188a25.07 25.07 0 0 0 3.438 3.063c.829 5.957 5.245 10.5 10.563 10.5 2.895 0 5.511-1.342 7.438-3.531l.281.031c1.611 4.534 5.423 7.719 9.875 7.719 1.279 0 2.52-.268 3.656-.75 6.334 4.342 15.516 7.063 25.719 7.063 13.527 0 25.215-4.79 30.906-11.781a55.99 55.99 0 0 0 2.313-.156c2.14.918 4.509 1.469 7.031 1.469 6.913 0 12.827-3.864 15.313-9.344a25.81 25.81 0 0 0 1.188-.969c.907.14 1.831.25 2.781.25a18.14 18.14 0 0 0 4.156-.5c1.845 3.768 5.308 6.313 9.281 6.313 4.317 0 8.028-2.998 9.719-7.312.926.142 1.872.219 2.844.219 3.162 0 6.111-.796 8.625-2.156 1.913 2.101 4.484 3.375 7.313 3.375 4.54 0 8.415-3.323 9.969-8 .446.047.888.094 1.344.094 1.123 0 2.221-.163 3.281-.437 1.782 1.556 3.982 2.469 6.375 2.469 4.41 0 8.207-3.128 9.844-7.594 2.511 1.395 5.469 2.188 8.625 2.188 6.441 0 12.007-3.33 14.75-8.219 1.917.705 4.025 1.094 6.219 1.094 9.153 0 16.563-6.756 16.563-15.094a13.8 13.8 0 0 0-.312-2.875 13.95 13.95 0 0 0 2-7.187c0-4.867-2.544-9.177-6.469-11.937a13.94 13.94 0 0 0 .594-4c0-8.338-7.441-15.094-16.594-15.094-.81 0-1.596.085-2.375.188.32-1.138.5-2.306.5-3.531 0-8.106-7.41-14.687-16.562-14.687-.265 0-.52.02-.781.031-1.848-3.754-5.317-6.281-9.281-6.281-1.549 0-3.015.4-4.344 1.094-4.103-7.03-13.999-12.339-26.125-13.75.017-.271.063-.538.063-.812 0-8.106-7.41-14.656-16.562-14.656h0zm41.719 54.688c.618 1.318 1.467 2.534 2.469 3.625-.92-.122-1.867-.206-2.812-.281.245-1.003.344-2.026.344-3.094v-.25h0zm-36.562 2.969a56.09 56.09 0 0 0 3.75.188c.16.701.419 1.37.688 2.031-1.429-.692-2.965-1.295-4.562-1.844.039-.125.089-.249.125-.375h0z" fill="url(#A)"/><path d="M273.645.228c-4.047 0-7.747 1.272-10.625 3.406-2.333-1.111-5.009-1.75-7.844-1.75-1.396 0-2.736.18-4.031.469 2.925 2.228 5.684 4.556 8.219 6.938 11.299 1.246 20.063 10.259 20.063 21.219 0 2.389-.419 4.698-1.187 6.844 1.645 5.01 2.531 10.165 2.531 15.438v.063c4.451 3.904 7.219 9.45 7.219 15.625 0 11.705-10.002 21.235-22.406 21.406l-1.156 1.312c.968 2.144 1.5 4.456 1.5 6.844 0 11.812-12.82 21.375-28.656 21.375-1.409 0-2.802-.072-4.156-.219-2.43 10.342-16.842 18.281-34.25 18.281-6.076 0-11.787-.956-16.75-2.656-3.309 3.806-8.043 6.586-13.469 7.719 6.095 3.306 14.066 5.281 22.813 5.281 13.527 0 25.215-4.79 30.906-11.781.776-.033 1.552-.092 2.313-.156a17.79 17.79 0 0 0 7.031 1.469c6.913 0 12.827-3.864 15.313-9.344a25.62 25.62 0 0 0 1.188-.969c.907.14 1.831.25 2.781.25a18.14 18.14 0 0 0 4.156-.5c1.845 3.768 5.308 6.313 9.281 6.313 4.317 0 8.028-2.998 9.719-7.313.926.142 1.872.219 2.844.219 3.162 0 6.111-.796 8.625-2.156 1.913 2.101 4.484 3.375 7.313 3.375 4.54 0 8.415-3.323 9.969-8 .446.047.888.094 1.344.094 1.123 0 2.221-.163 3.281-.437 1.782 1.556 3.982 2.469 6.375 2.469 4.41 0 8.207-3.128 9.844-7.594 2.511 1.395 5.469 2.187 8.625 2.187 6.441 0 12.007-3.33 14.75-8.219 1.917.705 4.025 1.094 6.219 1.094 9.153 0 16.563-6.756 16.563-15.094a13.8 13.8 0 0 0-.312-2.875 13.95 13.95 0 0 0 2-7.187c0-4.867-2.544-9.177-6.469-11.937.381-1.27.594-2.619.594-4 0-8.338-7.441-15.094-16.594-15.094-.81 0-1.596.085-2.375.187.32-1.138.5-2.306.5-3.531 0-8.106-7.41-14.687-16.562-14.687-.265 0-.52.02-.781.031-1.848-3.754-5.317-6.281-9.281-6.281-1.549 0-3.015.4-4.344 1.094-4.103-7.03-13.999-12.339-26.125-13.75.017-.271.063-.538.063-.812 0-8.106-7.41-14.656-16.562-14.656h0zm41.719 54.688c.618 1.318 1.467 2.534 2.469 3.625-.92-.122-1.867-.206-2.812-.281.245-1.004.344-2.026.344-3.094v-.25h0z" fill="url(#B)"/><use xlink:href="#C" class="M N P"/><use xlink:href="#D" class="O"/><use xlink:href="#C" x="83.101" y="-.543" class="M N P"/><use xlink:href="#D" x="83.1" y="-.543" class="O"/><path d="M353.455 67.412a11.56 11.56 0 0 1 6.1 1.748h.154c6.209 0 11.29 4.87 11.601 11.001.011.198 0 .399 0 .6a11.56 11.56 0 0 1-1.011 4.712 11.51 11.51 0 0 1 1.953 6.443c0 .2.011.402 0 .6-.311 6.131-5.392 11.001-11.601 11.001a11.71 11.71 0 0 1-1.799-.137 11.58 11.58 0 0 1-6.34 1.885c-2.264 0-4.383-.644-6.169-1.765a11.21 11.21 0 0 1-.685.017c-6.409 0-11.618-5.192-11.618-11.601a11.48 11.48 0 0 1 1.028-4.729c-1.24-1.84-1.971-4.038-1.971-6.426 0-6.409 5.209-11.601 11.618-11.601a11.66 11.66 0 0 1 2.279.223c1.849-1.244 4.064-1.971 6.46-1.971h0z" stroke-width="1.645" class="M N"/><path d="M356.385 71.117a11.56 11.56 0 0 1 6.1 1.748h.154c6.209 0 11.29 4.87 11.601 11.001.011.198 0 .399 0 .6a11.56 11.56 0 0 1-1.011 4.712 11.51 11.51 0 0 1 1.953 6.443c0 .2.011.402 0 .6-.311 6.131-5.392 11.001-11.601 11.001a11.72 11.72 0 0 1-1.799-.137 11.58 11.58 0 0 1-6.34 1.885c-2.264 0-4.383-.644-6.169-1.765a11.21 11.21 0 0 1-.685.017c-6.409 0-11.618-5.192-11.618-11.601a11.48 11.48 0 0 1 1.028-4.729c-1.24-1.84-1.971-4.038-1.971-6.426 0-6.409 5.209-11.601 11.618-11.601a11.66 11.66 0 0 1 2.279.223c1.849-1.244 4.064-1.971 6.46-1.971h0z" class="O"/><path d="M303.213 46.938c1.539 0 2.975.447 4.193 1.201h.106c4.267 0 7.76 3.347 7.974 7.562.007.136 0 .275 0 .412a7.94 7.94 0 0 1-.695 3.239 7.91 7.91 0 0 1 1.343 4.429c0 .138.007.276 0 .412-.214 4.214-3.706 7.562-7.974 7.562a8.04 8.04 0 0 1-1.237-.094c-1.251.817-2.751 1.296-4.358 1.296-1.556 0-3.013-.443-4.24-1.213-.156.01-.313.012-.471.012-4.405 0-7.986-3.569-7.986-7.974a7.89 7.89 0 0 1 .707-3.251 7.86 7.86 0 0 1-1.354-4.417c0-4.405 3.58-7.974 7.986-7.974a7.98 7.98 0 0 1 1.566.153c1.271-.855 2.794-1.354 4.44-1.354h0z" stroke-width="1.131" class="M N"/><path d="M306.905 51.162c1.539 0 2.975.447 4.193 1.201h.106c4.267 0 7.76 3.347 7.974 7.562.007.136 0 .275 0 .412a7.94 7.94 0 0 1-.695 3.239 7.91 7.91 0 0 1 1.343 4.429c0 .138.007.276 0 .412-.214 4.214-3.706 7.562-7.974 7.562a8.13 8.13 0 0 1-1.237-.094c-1.251.817-2.751 1.296-4.358 1.296-1.556 0-3.013-.443-4.24-1.213-.156.01-.313.012-.471.012-4.405 0-7.986-3.569-7.986-7.974a7.89 7.89 0 0 1 .707-3.251 7.86 7.86 0 0 1-1.354-4.417c0-4.405 3.58-7.974 7.986-7.974a8.02 8.02 0 0 1 1.566.153c1.271-.855 2.794-1.354 4.44-1.354h0z" opacity=".803" class="O"/><use xlink:href="#C" x="-129.93" y="-34.091" class="M N P"/><use xlink:href="#D" x="-129.93" y="-34.091" class="O"/><use xlink:href="#C" x="-52.769" y="-29.059" class="M N P"/><use xlink:href="#D" x="-52.77" y="-29.059" class="O Q"/><use xlink:href="#E" class="M N R"/><use xlink:href="#F" class="O Q"/><use xlink:href="#E" x="-191.288" y="-30.151" class="M N R"/><use xlink:href="#F" x="-191.288" y="-30.151" class="O Q"/><path d="M206.584 62.513c2.254 0 4.358.407 6.142 1.095h.155c6.251 0 11.368 3.05 11.68 6.891.011.124 0 .25 0 .376 0 1.052-.372 2.049-1.018 2.952 1.245 1.156 1.967 2.539 1.967 4.036 0 .125.011.252 0 .376-.313 3.841-5.429 6.891-11.68 6.891-.618 0-1.22-.029-1.812-.086-1.833.744-4.03 1.181-6.384 1.181-2.279 0-4.413-.404-6.211-1.106a17.54 17.54 0 0 1-.69.011c-6.453 0-11.698-3.252-11.698-7.266 0-1.057.38-2.058 1.035-2.962-1.248-1.153-1.984-2.529-1.984-4.025 0-4.014 5.245-7.266 11.698-7.266a18.68 18.68 0 0 1 2.295.14c1.862-.779 4.092-1.234 6.505-1.234h0z" stroke-width="1.306" class="M N"/><path d="M209.535 64.834c2.254 0 4.358.407 6.142 1.095h.155c6.251 0 11.368 3.05 11.681 6.891.011.124 0 .25 0 .376 0 1.052-.372 2.049-1.018 2.952 1.245 1.156 1.967 2.539 1.967 4.036 0 .125.011.252 0 .376-.313 3.841-5.429 6.891-11.68 6.891a18.8 18.8 0 0 1-1.812-.086c-1.833.744-4.03 1.181-6.384 1.181-2.279 0-4.413-.404-6.211-1.106a17.54 17.54 0 0 1-.69.011c-6.453 0-11.698-3.252-11.698-7.266 0-1.057.38-2.058 1.035-2.962-1.248-1.153-1.984-2.529-1.984-4.025 0-4.014 5.245-7.266 11.698-7.266.788 0 1.552.048 2.295.14 1.862-.779 4.092-1.234 6.505-1.234h0z" class="O Q"/></g></svg>