<svg xmlns="http://www.w3.org/2000/svg" xmlns:xlink="http://www.w3.org/1999/xlink" width="197" height="276"><defs><linearGradient id="b" x1="-2.912%" x2="102.931%" y1="1913.752%" y2="1913.752%"><stop offset="0%" stop-color="#f1aac2"/><stop offset="100%" stop-color="#e5638f"/></linearGradient><linearGradient id="c" x1="102.912%" x2="-2.931%" y1="1911.469%" y2="1911.469%"><stop offset="0%" stop-color="#f1aac2"/><stop offset="100%" stop-color="#e5638f"/></linearGradient><linearGradient id="d" x1="27.36%" x2="90.184%" y1="18.787%" y2="90.34%"><stop offset="0%" stop-color="#ffceae"/><stop offset="100%" stop-color="#ffb280"/></linearGradient><linearGradient id="e" x1="-8.611%" x2="108.556%" y1="1770.326%" y2="1770.326%"><stop offset="0%" stop-color="#8a8a8a"/><stop offset="28.57%" stop-color="#f1f1f1"/><stop offset="100%" stop-color="#fff"/></linearGradient><linearGradient id="f" x1="-8.633%" x2="108.534%" y1="1772.183%" y2="1772.183%"><stop offset="0%" stop-color="#8a8a8a"/><stop offset="28.57%" stop-color="#f1f1f1"/><stop offset="100%" stop-color="#fff"/></linearGradient><path d="M95.721 118.044c37.428 1.331 67.417 35.262 67.417 76.946 0 39.342-26.697 71.758-61.163 76.401 24.048-6.714 42.23-38.118 42.23-75.855 0-40.953-21.404-74.458-48.485-77.03v-.462z" id="a"/></defs><g fill="none" fill-rule="evenodd" transform="translate(3.323 2.017)"><g stroke="#000"><path d="m94.768.91-.84.042v.042c-14.626.17-50.182 3.266-63.262 35.136-6.519-8.665-.005.003-21.031-19.94 0 0-26.38 25.847 9.613 44.203C31.751 176.386 6.281 220.959 80.286 219.366c4.216-.091 8.845-.03 13.643.084h.126l2.183.042v-.084c4.802-.114 9.423-.175 13.643-.084 74.005 1.593 48.535-42.979 61.037-158.972 35.993-18.356 9.613-44.203 9.613-44.203-21.026 19.943-14.512 11.275-21.031 19.94C145.978 3.142 108.372.91 94.768.91z" fill="#333" stroke-width="5.81"/><path d="M166.444 194.155c0 42.529-31.198 77.005-69.682 77.005S27.08 236.684 27.08 194.155s31.198-77.005 69.682-77.005 69.682 34.476 69.682 77.005z" fill="#93939f" stroke-width="2.705"/></g><use xlink:href="#a" fill="#7f7f8d"/><path d="M95.54 116.904c-37.428 1.331-67.417 35.262-67.417 76.946 0 39.342 26.697 71.758 61.163 76.401-24.048-6.714-42.23-38.118-42.23-75.855 0-40.953 21.404-74.458 48.485-77.03v-.462z" fill="#c1c1c8"/><path d="M69.513 29.448c-17.275 0-31.304 16.22-31.304 36.208s14.029 36.206 31.304 36.206c10.152 0 19.16-5.607 24.879-14.283 5.717 8.682 14.746 14.283 24.904 14.283 17.269 0 31.301-16.222 31.301-36.206s-14.031-36.208-31.301-36.208c-10.156 0-19.187 5.605-24.904 14.285-5.719-8.674-14.728-14.285-24.879-14.285z" fill="#fff" stroke="#000" stroke-width="5.484"/><path d="M134.866 32.948c.382 2.298.564 4.684.564 7.11 0 20.64-14.464 37.373-32.3 37.373-10.491 0-19.849-5.774-25.754-14.741-5.907 8.961-15.182 14.741-25.667 14.741-5.202 0-10.125-1.416-14.481-3.945 2.873 17.247 15.994 30.306 31.737 30.306 10.485 0 19.803-5.823 25.71-14.784 5.905 8.967 15.219 14.784 25.71 14.784 17.836 0 32.344-16.776 32.344-37.416 0-14.626-7.279-27.282-17.863-33.428z" fill="#a5a5a5" opacity=".337"/><path d="M92.413 68.106c0 5.004-4.059 9.062-9.064 9.062s-9.062-4.057-9.062-9.062 4.059-9.064 9.062-9.064 9.064 4.057 9.064 9.064z" fill="#000" stroke="#000" stroke-width="3.476"/><path d="M82.431 64.932a2.35 2.35 0 1 1-2.351-2.351 2.352 2.352 0 0 1 2.351 2.351z" fill="#fff"/><path d="M115.364 68.106c0 5.004-4.057 9.062-9.062 9.062s-9.064-4.057-9.064-9.062 4.057-9.064 9.064-9.064 9.062 4.057 9.062 9.064z" fill="#000" stroke="#000" stroke-width="3.476"/><path d="M105.381 64.932a2.35 2.35 0 1 1-2.349-2.351 2.35 2.35 0 0 1 2.349 2.351z" fill="#fff"/><g stroke="#000" stroke-width="1.343"><path d="M7.263 25.594S-6.382 41.409 17.337 56.405c3.808-3.689 4.352-4.342 8.832-7.894v-2.855c-5.426-2.96-2.922-6.831-11.771-17.832l-7.135-2.23z" fill="url(#b)"/><path d="M184.264 26.297s13.645 15.815-10.074 30.811c-3.808-3.689-4.352-4.342-8.832-7.894V46.36c5.426-2.96 2.922-6.831 11.771-17.832l7.135-2.23z" fill="url(#c)"/></g><use xlink:href="#a" fill="#7f7f8d" x="-9.013" y="2.253"/><path d="M95.053 91.069c-11.545 0-21.503 5.691-26.069 13.89-10.532 3.253-17.295 8.355-17.295 14.079 0 1.577.546 3.12 1.511 4.576a13.22 13.22 0 0 0-1.091 5.253c0 13.043 19.999 23.61 44.665 23.61s44.665-10.567 44.665-23.61c0-2.076-.518-4.093-1.469-6.011.67-1.226 1.049-2.512 1.049-3.818 0-6.268-8.121-11.778-20.402-14.946-4.767-7.734-14.427-13.023-25.565-13.023z" fill="url(#d)" stroke="#000" stroke-width="2.687"/><path d="M111.403 98.953c0 8.711-7.062 15.773-15.773 15.773s-15.773-7.062-15.773-15.773S86.919 83.18 95.63 83.18s15.773 7.062 15.773 15.773z" fill="#000"/><g stroke="#000"><g stroke-width="3.045"><path d="M76.485 132.95h17.878v27.243H76.485V132.95z" fill="url(#e)"/><path d="M94.581 132.444h17.878v27.243H94.581v-27.243z" fill="url(#f)"/></g><path d="M59.578 123.739c25.973 14.497 50.262 12.156 73.231-3.38" stroke-width="5.373"/></g></g></svg>